<?xml version="1.0" encoding="iso-8859-1"?>
<!-- Generator: Adobe Illustrator 19.0.0, SVG Export Plug-In . SVG Version: 6.00 Build 0)  -->
<svg version="1.1" id="Capa_1" xmlns="http://www.w3.org/2000/svg" xmlns:xlink="http://www.w3.org/1999/xlink" x="0px" y="0px"
	 viewBox="0 0 512 512" style="enable-background:new 0 0 512 512;" xml:space="preserve">
<g>
	<g>
		<path d="M256,0C114.624,0,0,114.624,0,256s114.624,256,256,256s256-114.624,256-256S397.376,0,256,0z M318.368,192H336
			c8.832,0,16,7.168,16,16c0,8.832-7.168,16-16,16h-17.632c-7.424,36.48-39.744,64-78.368,64h-25.376l100.672,100.672
			c6.24,6.24,6.24,16.384,0,22.624c-3.104,3.136-7.2,4.704-11.296,4.704s-8.192-1.568-11.328-4.672l-128-128
			c-4.576-4.608-5.952-11.456-3.456-17.44C163.68,259.904,169.536,256,176,256h64c20.832,0,38.432-13.408,45.056-32H176
			c-8.832,0-16-7.168-16-16c0-8.832,7.168-16,16-16h109.056c-6.624-18.592-24.224-32-45.056-32h-64c-8.832,0-16-7.168-16-16
			c0-8.832,7.168-16,16-16h64h96c8.832,0,16,7.168,16,16c0,8.832-7.168,16-16,16h-32.416
			C310.656,169.344,315.968,180.096,318.368,192z"/>
	</g>
</g>
<g>
</g>
<g>
</g>
<g>
</g>
<g>
</g>
<g>
</g>
<g>
</g>
<g>
</g>
<g>
</g>
<g>
</g>
<g>
</g>
<g>
</g>
<g>
</g>
<g>
</g>
<g>
</g>
<g>
</g>
</svg>
